<?xml version="1.0" encoding="UTF-8"?>
<svg xmlns="http://www.w3.org/2000/svg" xmlns:xlink="http://www.w3.org/1999/xlink" width="50pt" height="50pt" viewBox="0 0 50 50" version="1.1">
<g id="surface14703558">
<path style=" stroke:none;fill-rule:nonzero;fill:rgb(100%,100%,100%);fill-opacity:1;" d="M 31 24 C 28.242188 24 26 21.757812 26 19 L 26 7 C 26 4.242188 28.242188 2 31 2 C 33.757812 2 36 4.242188 36 7 L 36 19 C 36 21.757812 33.757812 24 31 24 Z M 43 24 L 39 24 C 38.445312 24 38 23.554688 38 23 L 38 19 C 38 16.242188 40.242188 14 43 14 C 45.757812 14 48 16.242188 48 19 C 48 21.757812 45.757812 24 43 24 Z M 19 24 L 7 24 C 4.242188 24 2 21.757812 2 19 C 2 16.242188 4.242188 14 7 14 L 19 14 C 21.757812 14 24 16.242188 24 19 C 24 21.757812 21.757812 24 19 24 Z M 23 12 L 19 12 C 16.242188 12 14 9.757812 14 7 C 14 4.242188 16.242188 2 19 2 C 21.757812 2 24 4.242188 24 7 L 24 11 C 24 11.554688 23.554688 12 23 12 Z M 19 48 C 16.242188 48 14 45.757812 14 43 L 14 31 C 14 28.242188 16.242188 26 19 26 C 21.757812 26 24 28.242188 24 31 L 24 43 C 24 45.757812 21.757812 48 19 48 Z M 7 36 C 4.242188 36 2 33.757812 2 31 C 2 28.242188 4.242188 26 7 26 L 11 26 C 11.554688 26 12 26.445312 12 27 L 12 31 C 12 33.757812 9.757812 36 7 36 Z M 43 36 L 31 36 C 28.242188 36 26 33.757812 26 31 C 26 28.242188 28.242188 26 31 26 L 43 26 C 45.757812 26 48 28.242188 48 31 C 48 33.757812 45.757812 36 43 36 Z M 31 48 C 28.242188 48 26 45.757812 26 43 L 26 39 C 26 38.445312 26.445312 38 27 38 L 31 38 C 33.757812 38 36 40.242188 36 43 C 36 45.757812 33.757812 48 31 48 Z M 31 48 "/>
</g>
</svg>
