<?xml version="1.0" encoding="UTF-8"?>
<svg xmlns="http://www.w3.org/2000/svg" xmlns:xlink="http://www.w3.org/1999/xlink" width="48pt" height="48pt" viewBox="0 0 480 480" version="1.1">
<g id="surface13214774">
<path style=" stroke:none;fill-rule:nonzero;fill:rgb(100%,100%,100%);fill-opacity:1;" d="M 480 86.015625 C 462.03125 93.984375 443.984375 100 423.984375 102.03125 C 443.984375 90 460 70 467.96875 47.96875 C 447.96875 60 427.96875 67.96875 406.015625 72.03125 C 386.015625 52.03125 360 40 332.03125 40 C 277.96875 40 233.984375 83.984375 233.984375 137.96875 C 233.984375 146.015625 233.984375 153.984375 236.015625 160 C 153.984375 156.015625 82.03125 117.96875 33.984375 57.96875 C 23.984375 72.03125 20 90 20 107.96875 C 20 142.03125 37.96875 172.03125 63.984375 190 C 47.96875 187.96875 32.03125 183.984375 20 177.96875 C 20 177.96875 20 177.96875 20 180 C 20 227.96875 53.984375 267.96875 97.96875 276.015625 C 90 277.96875 82.03125 280 72.03125 280 C 66.015625 280 60 280 53.984375 277.96875 C 66.015625 317.96875 102.03125 346.015625 146.015625 346.015625 C 112.03125 372.03125 70 387.96875 23.984375 387.96875 C 16.015625 387.96875 7.96875 387.96875 0 386.015625 C 43.984375 413.984375 96.015625 430 150 430 C 332.03125 430 430 280 430 150 C 430 146.015625 430 142.03125 430 137.96875 C 450 123.984375 466.015625 106.015625 480 86.015625 "/>
</g>
</svg>
